<?xml version="1.0" standalone="no"?>
<!DOCTYPE svg PUBLIC "-//W3C//DTD SVG 20010904//EN"
 "http://www.w3.org/TR/2001/REC-SVG-20010904/DTD/svg10.dtd">
<svg version="1.0" xmlns="http://www.w3.org/2000/svg"
 width="512.000000pt" height="512.000000pt" viewBox="0 0 512.000000 512.000000"
 preserveAspectRatio="xMidYMid meet">

<g transform="translate(0.000000,512.000000) scale(0.100000,-0.100000)"
fill="#000000" stroke="none">
<path d="M2245 4934 c-524 -71 -1008 -310 -1378 -680 -196 -195 -335 -390
-457 -639 -118 -239 -187 -461 -227 -725 -24 -160 -24 -501 0 -660 82 -537
308 -990 682 -1366 365 -367 831 -599 1365 -681 158 -24 500 -24 660 0 440 67
843 242 1177 513 477 387 787 944 868 1557 8 65 15 137 15 160 l0 42 -478 478
c-427 427 -478 475 -474 445 4 -33 -224 -986 -252 -1051 -20 -50 -62 -93 -111
-116 -44 -21 -50 -21 -902 -21 -797 0 -860 -1 -892 -18 -49 -24 -73 -62 -73
-110 1 -52 15 -78 55 -102 31 -19 59 -20 995 -20 l963 0 24 -25 c30 -30 31
-54 4 -89 -18 -23 -28 -26 -77 -26 -47 -1 -53 -3 -37 -12 11 -6 37 -27 59 -47
109 -102 117 -289 17 -403 -62 -69 -119 -93 -226 -93 -80 0 -95 3 -135 27
-199 117 -209 384 -20 510 23 16 -13 17 -604 17 l-629 1 39 -29 c54 -39 69
-58 100 -125 23 -51 26 -68 22 -130 -8 -117 -59 -195 -160 -245 -110 -55 -235
-38 -327 45 -51 45 -85 111 -97 181 -15 95 40 217 125 274 l40 26 -44 7 c-174
23 -277 217 -199 374 31 62 81 106 147 130 48 17 49 17 43 54 -3 20 -9 43 -12
52 -6 14 19 16 240 16 233 0 247 1 266 20 26 26 26 64 0 90 -20 20 -33 20
-575 20 l-556 0 -24 25 c-32 31 -32 59 0 90 l24 25 276 0 277 0 -7 50 -7 50
239 0 c257 0 266 2 278 52 5 21 1 33 -19 52 l-25 26 -326 0 c-312 0 -326 1
-345 20 -52 52 -6 120 81 120 l48 0 -10 32 c-17 61 -29 58 225 58 129 0 246 4
260 10 38 14 54 55 35 88 l-15 27 -508 5 -508 5 -19 24 c-25 30 -24 66 1 91
19 19 33 20 236 20 l216 0 -6 26 c-4 15 -21 84 -37 154 l-30 128 -131 4 c-122
3 -131 4 -149 27 -25 30 -24 66 1 91 18 18 33 20 195 20 171 0 175 0 190 -23
8 -13 36 -111 61 -218 25 -107 48 -198 51 -203 3 -5 472 -5 1103 -1 854 6
1102 5 1121 -5 13 -7 -320 333 -741 754 l-765 766 -55 -1 c-30 -1 -100 -7
-155 -15z"/>
<path d="M1965 1676 c-98 -42 -124 -173 -52 -250 97 -102 267 -36 267 104 0
62 -28 110 -80 137 -48 26 -91 29 -135 9z"/>
<path d="M3480 1668 c-33 -17 -51 -35 -67 -68 -28 -55 -29 -82 -2 -136 27 -56
72 -84 135 -84 90 0 154 63 154 150 0 62 -28 110 -80 137 -54 29 -84 29 -140
1z"/>
</g>
</svg>
